<svg id="Capa_1" data-name="Capa 1" xmlns="http://www.w3.org/2000/svg" viewBox="0 0 1544.76 687.31"><defs><style>.cls-1{font-size:227.62px;font-family:GtekTechnology, Gtek Technology;}.cls-1,.cls-2{fill:#fff;}.cls-3{font-size:35.45px;}.cls-3,.cls-4{fill:#bf0811;font-family:HelveticaNeueLTPro-MdEx, Helvetica Neue LT Pro;font-weight:500;}.cls-4{font-size:56.26px;}.cls-5{font-size:116.12px;fill:#416ba7;font-family:Montserrat-Bold, Montserrat;font-weight:700;}.cls-6{letter-spacing:-0.02em;}.cls-7{letter-spacing:-0.07em;}.cls-8{font-size:45.62px;fill:#666565;font-family:Montserrat-Regular, Montserrat;}.cls-9{letter-spacing:-0.01em;}.cls-10{letter-spacing:-0.03em;}.cls-11{letter-spacing:-0.02em;}</style></defs><title>cided blanco</title><text class="cls-1" transform="translate(0 356.76) scale(0.9 1)">cided</text><ellipse class="cls-2" cx="123.76" cy="21.88" rx="20.55" ry="21.88"/><ellipse class="cls-2" cx="188.69" cy="150.12" rx="35.67" ry="36.66"/><ellipse class="cls-2" cx="262.89" cy="72.94" rx="20.55" ry="21.88"/><ellipse class="cls-2" cx="273.37" cy="258.08" rx="20.55" ry="21.88"/><ellipse class="cls-2" cx="99.14" cy="255.56" rx="20.55" ry="21.88"/><ellipse class="cls-2" cx="84.32" cy="144.67" rx="20.55" ry="21.88"/><rect class="cls-2" x="205.24" y="138.24" width="9.07" height="96.83" transform="translate(-118.42 17.53) rotate(-28.73)"/><rect class="cls-2" x="278.61" y="179.32" width="9.07" height="67.42" transform="translate(181.92 -244.51) rotate(45.47)"/><rect class="cls-2" x="285.56" y="266.48" width="9.07" height="91.64" transform="translate(656.25 274.67) rotate(142.16)"/><rect class="cls-2" x="193.44" y="265.72" width="9.07" height="91.64" transform="translate(65.31 566) rotate(-135.34)"/><rect class="cls-2" x="191.02" y="209.27" width="9.07" height="91.64" transform="translate(-117.47 339.83) rotate(-88.99)"/><text x="-54.52" y="-106.29"/><text class="cls-3" transform="translate(722.69 590.24) scale(0.73 1)">research group</text><text x="-54.52" y="-106.29"/><text class="cls-4" transform="translate(652.1 559.1) scale(0.73 1)">data science</text><text class="cls-5" transform="translate(936.8 215.88)">MET<tspan class="cls-6" x="258.72" y="0">D</tspan><tspan class="cls-7" x="345.47" y="0">AT</tspan><tspan x="489.12" y="0">A</tspan></text><text class="cls-8" transform="translate(916.02 263.59)">Me<tspan class="cls-9" x="69.66" y="0">t</tspan><tspan x="87.45" y="0">eorologi</tspan><tspan class="cls-10" x="271.3" y="0">c</tspan><tspan x="295.75" y="0">al data scien</tspan><tspan class="cls-11" x="577.32" y="0">c</tspan><tspan x="601.91" y="0">e</tspan></text></svg>